<svg xmlns="http://www.w3.org/2000/svg" fill="none" viewBox="0 0 51 50">
  <path fill="#726DA8" d="M10.006 2.787C9.973 1.196 11.948 0 13.636 0h27.849c1.93 0 5.495 2.567 5.495 4.5v34.023c0 1.795-1.35 5.275-3.088 5.477V6.811a4.028 4.028 0 0 0-4.032-4.024H10.006Z"/>
  <path fill="#726DA8" fill-rule="evenodd" d="M6.726 4.767C4.67 4.767 5 6.454 5 8.535v37.698C5 48.313 4.669 50 6.726 50H38.53c2.057 0 3.725-1.687 3.725-3.767V8.535c0-2.08-1.668-3.768-3.725-3.768H6.726Zm19.665 14.966c0-1.677 1.376-3.035 3.074-3.035 1.697 0 3.073 1.358 3.073 3.035 0 1.676-1.376 3.034-3.073 3.034-1.698 0-3.074-1.358-3.074-3.034Zm-.332 5.496-1.249 1.793-3.153-5.748a1.026 1.026 0 0 0-.901-.53c-.376 0-.722.204-.901.53l-6.66 12.14a1 1 0 0 0 .021.999c.185.306.52.494.88.494h18.442c.38 0 .73-.208.907-.54a1 1 0 0 0-.063-1.045l-5.635-8.093a1.028 1.028 0 0 0-.844-.438c-.337 0-.653.164-.844.438Z" clip-rule="evenodd"/>
</svg>