<svg xmlns="http://www.w3.org/2000/svg" fill="none" viewBox="0 0 318 55">
  <path fill="url(#a)" d="M75.966 45.704c-1.216 0-2.144-.336-2.784-1.008-.64-.672-.96-1.616-.96-2.832v-26.64c0-1.248.32-2.192.96-2.832.672-.64 1.616-.96 2.832-.96h11.664c3.776 0 6.688.96 8.736 2.88 2.048 1.888 3.072 4.528 3.072 7.92 0 3.392-1.024 6.048-3.072 7.968s-4.96 2.88-8.736 2.88h-8.016v8.784c0 1.216-.32 2.16-.96 2.832-.608.672-1.52 1.008-2.736 1.008Zm3.696-18.384h6.768c1.92 0 3.376-.432 4.368-1.296 1.024-.864 1.536-2.128 1.536-3.792 0-1.664-.512-2.912-1.536-3.744-.992-.832-2.448-1.248-4.368-1.248h-6.768v10.08Z"/>
  <path fill="url(#b)" d="M107.121 45.704c-1.184 0-2.096-.32-2.736-.96-.608-.64-.912-1.552-.912-2.736V14.696c0-1.216.304-2.128.912-2.736.64-.64 1.552-.96 2.736-.96 1.152 0 2.032.32 2.64.96.64.608.96 1.52.96 2.736V26.12h-.672c.736-1.568 1.824-2.768 3.264-3.6 1.472-.864 3.136-1.296 4.992-1.296 1.888 0 3.44.368 4.656 1.104 1.216.704 2.128 1.792 2.736 3.264.608 1.44.912 3.28.912 5.52v10.896c0 1.184-.32 2.096-.96 2.736-.608.64-1.504.96-2.688.96-1.152 0-2.048-.32-2.688-.96-.608-.64-.912-1.552-.912-2.736v-10.56c0-1.632-.304-2.8-.912-3.504-.576-.736-1.472-1.104-2.688-1.104-1.536 0-2.768.48-3.696 1.44-.896.96-1.344 2.24-1.344 3.84v9.888c0 2.464-1.2 3.696-3.6 3.696Z"/>
  <path fill="url(#c)" d="M143.348 45.8c-2.528 0-4.736-.496-6.624-1.488a10.484 10.484 0 0 1-4.32-4.272c-1.024-1.856-1.536-4.048-1.536-6.576 0-1.888.288-3.584.864-5.088.576-1.504 1.408-2.784 2.496-3.84 1.12-1.088 2.448-1.904 3.984-2.448 1.536-.576 3.248-.864 5.136-.864 2.528 0 4.72.496 6.576 1.488 1.888.992 3.344 2.4 4.368 4.224 1.056 1.824 1.584 4 1.584 6.528 0 1.92-.304 3.632-.912 5.136-.576 1.504-1.408 2.8-2.496 3.888s-2.416 1.92-3.984 2.496c-1.536.544-3.248.816-5.136.816Zm0-5.424c1.056 0 1.968-.256 2.736-.768.768-.512 1.376-1.264 1.824-2.256.448-1.024.672-2.32.672-3.888 0-2.336-.48-4.048-1.44-5.136-.96-1.12-2.224-1.68-3.792-1.68-1.024 0-1.936.24-2.736.72-.768.48-1.376 1.232-1.824 2.256-.416.992-.624 2.272-.624 3.84 0 2.336.48 4.08 1.44 5.232.96 1.12 2.208 1.68 3.744 1.68Z"/>
  <path fill="url(#d)" d="M171.619 45.8c-2.208 0-4.064-.368-5.568-1.104-1.472-.736-2.576-1.808-3.312-3.216-.704-1.408-1.056-3.184-1.056-5.328v-9.024h-2.016c-.896 0-1.6-.24-2.112-.72-.48-.48-.72-1.136-.72-1.968 0-.896.24-1.568.72-2.016.512-.48 1.216-.72 2.112-.72h2.016v-3.648c0-1.216.32-2.128.96-2.736.64-.64 1.536-.96 2.688-.96 1.184 0 2.08.32 2.688.96.608.608.912 1.52.912 2.736v3.648h4.56c.896 0 1.584.24 2.064.72.48.448.72 1.12.72 2.016 0 .832-.24 1.488-.72 1.968s-1.168.72-2.064.72h-4.56v8.736c0 1.344.304 2.352.912 3.024.64.672 1.648 1.008 3.024 1.008.48 0 .928-.048 1.344-.144.416-.096.8-.16 1.152-.192.448-.032.816.112 1.104.432.288.288.432.944.432 1.968 0 .768-.128 1.44-.384 2.016-.256.576-.704.992-1.344 1.248-.416.16-.992.288-1.728.384-.704.128-1.312.192-1.824.192Z"/>
  <path fill="url(#e)" d="M190.551 45.8c-2.528 0-4.736-.496-6.624-1.488a10.484 10.484 0 0 1-4.32-4.272c-1.024-1.856-1.536-4.048-1.536-6.576 0-1.888.288-3.584.864-5.088.576-1.504 1.408-2.784 2.496-3.84 1.12-1.088 2.448-1.904 3.984-2.448 1.536-.576 3.248-.864 5.136-.864 2.528 0 4.72.496 6.576 1.488 1.888.992 3.344 2.4 4.368 4.224 1.056 1.824 1.584 4 1.584 6.528 0 1.92-.304 3.632-.912 5.136-.576 1.504-1.408 2.8-2.496 3.888s-2.416 1.92-3.984 2.496c-1.536.544-3.248.816-5.136.816Zm0-5.424c1.056 0 1.968-.256 2.736-.768.768-.512 1.376-1.264 1.824-2.256.448-1.024.672-2.32.672-3.888 0-2.336-.48-4.048-1.44-5.136-.96-1.12-2.224-1.68-3.792-1.68-1.024 0-1.936.24-2.736.72-.768.48-1.376 1.232-1.824 2.256-.416.992-.624 2.272-.624 3.84 0 2.336.48 4.08 1.44 5.232.96 1.12 2.208 1.68 3.744 1.68Z"/>
  <path fill="url(#f)" d="M216.513 45.8c-1.408 0-2.864-.128-4.368-.384-1.472-.256-2.816-.688-4.032-1.296-.64-.32-1.104-.72-1.392-1.2-.256-.512-.368-1.024-.336-1.536.032-.512.192-.976.48-1.392a2.2 2.2 0 0 1 1.2-.816c.512-.16 1.072-.112 1.68.144 1.312.544 2.512.928 3.6 1.152a15.92 15.92 0 0 0 3.216.336c1.376 0 2.368-.208 2.976-.624.64-.448.96-1.024.96-1.728 0-.64-.208-1.12-.624-1.44-.416-.32-1.024-.544-1.824-.672l-5.04-.912c-1.984-.352-3.52-1.072-4.608-2.16-1.056-1.12-1.584-2.544-1.584-4.272 0-1.6.448-2.976 1.344-4.128.896-1.184 2.128-2.08 3.696-2.688 1.6-.64 3.408-.96 5.424-.96 1.44 0 2.768.128 3.984.384 1.216.256 2.384.672 3.504 1.248.576.288.976.672 1.2 1.152.256.48.336.976.24 1.488a2.82 2.82 0 0 1-.576 1.392c-.32.416-.736.688-1.248.816-.48.128-1.04.064-1.68-.192-1.024-.48-1.968-.816-2.832-1.008a9.937 9.937 0 0 0-2.496-.336c-1.44 0-2.48.24-3.12.72-.64.448-.96 1.024-.96 1.728 0 .544.176 1.008.528 1.392.384.352.96.592 1.728.72l5.04.912c2.08.352 3.664 1.056 4.752 2.112 1.088 1.024 1.632 2.432 1.632 4.224 0 2.432-.96 4.352-2.88 5.76-1.888 1.376-4.416 2.064-7.584 2.064Z"/>
  <path fill="url(#g)" d="M231.93 45.608c-.576 0-1.04-.128-1.392-.384-.32-.256-.512-.608-.576-1.056-.064-.448.032-.944.288-1.488l13.104-29.664c.288-.672.656-1.152 1.104-1.44.448-.32.944-.48 1.488-.48s1.024.16 1.44.48c.448.288.832.768 1.152 1.44l13.104 29.664c.256.544.352 1.056.288 1.536-.032.448-.208.8-.528 1.056-.32.224-.768.336-1.344.336-.64 0-1.152-.16-1.536-.48-.384-.352-.72-.848-1.008-1.488l-3.408-7.968 2.064 1.152h-20.544l2.064-1.152-3.408 7.968c-.288.704-.608 1.216-.96 1.536-.352.288-.816.432-1.392.432Zm13.92-29.136-7.488 17.712-1.152-1.008h17.376l-1.104 1.008-7.536-17.712h-.096Z"/>
  <path fill="url(#h)" d="M269.197 54.248c-.672 0-1.2-.192-1.584-.576-.384-.384-.576-.928-.576-1.632V23.768c0-.736.192-1.28.576-1.632.384-.384.912-.576 1.584-.576.704 0 1.232.192 1.584.576.384.352.576.896.576 1.632v4.368l-.528-.864c.512-1.76 1.52-3.168 3.024-4.224s3.312-1.584 5.424-1.584c2.08 0 3.888.496 5.424 1.488 1.536.96 2.736 2.352 3.6 4.176.864 1.792 1.296 3.936 1.296 6.432 0 2.464-.432 4.624-1.296 6.48-.832 1.824-2.032 3.232-3.6 4.224-1.536.96-3.344 1.44-5.424 1.44-2.08 0-3.872-.528-5.376-1.584-1.504-1.056-2.512-2.448-3.024-4.176h.528V52.04c0 .704-.192 1.248-.576 1.632-.384.384-.928.576-1.632.576Zm9.072-12c1.376 0 2.576-.336 3.6-1.008 1.056-.672 1.872-1.648 2.448-2.928.576-1.28.864-2.864.864-4.752 0-2.816-.624-4.96-1.872-6.432-1.248-1.472-2.928-2.208-5.04-2.208-1.408 0-2.64.336-3.696 1.008-1.024.64-1.824 1.6-2.4 2.88-.544 1.28-.816 2.864-.816 4.752 0 2.816.624 4.976 1.872 6.48 1.248 1.472 2.928 2.208 5.04 2.208Z"/>
  <path fill="url(#i)" d="M297.369 54.248c-.672 0-1.2-.192-1.584-.576-.384-.384-.576-.928-.576-1.632V23.768c0-.736.192-1.28.576-1.632.384-.384.912-.576 1.584-.576.704 0 1.232.192 1.584.576.384.352.576.896.576 1.632v4.368l-.528-.864c.512-1.76 1.52-3.168 3.024-4.224s3.312-1.584 5.424-1.584c2.08 0 3.888.496 5.424 1.488 1.536.96 2.736 2.352 3.6 4.176.864 1.792 1.296 3.936 1.296 6.432 0 2.464-.432 4.624-1.296 6.48-.832 1.824-2.032 3.232-3.6 4.224-1.536.96-3.344 1.44-5.424 1.44-2.08 0-3.872-.528-5.376-1.584-1.504-1.056-2.512-2.448-3.024-4.176h.528V52.04c0 .704-.192 1.248-.576 1.632-.384.384-.928.576-1.632.576Zm9.072-12c1.376 0 2.576-.336 3.6-1.008 1.056-.672 1.872-1.648 2.448-2.928.576-1.28.864-2.864.864-4.752 0-2.816-.624-4.96-1.872-6.432-1.248-1.472-2.928-2.208-5.04-2.208-1.408 0-2.64.336-3.696 1.008-1.024.64-1.824 1.6-2.4 2.88-.544 1.28-.816 2.864-.816 4.752 0 2.816.624 4.976 1.872 6.48 1.248 1.472 2.928 2.208 5.04 2.208Z"/>
  <path fill="url(#j)" d="M48.18 0a9.034 9.034 0 1 0 0 18.067A9.034 9.034 0 0 0 48.18 0Z"/>
  <path fill="url(#k)" d="m34.5 30.732 3.67-5.337a3.01 3.01 0 0 1 4.962 0l16.562 24.09a3.01 3.01 0 0 1-2.482 4.717h-54.2a3.01 3.01 0 0 1-2.648-4.446l19.571-36.134a3.012 3.012 0 0 1 5.296 0l9.27 17.11Z"/>
  <defs>
    <linearGradient id="a" x1=".222" x2="131.207" y1="54" y2="-131.824" gradientUnits="userSpaceOnUse">
      <stop stop-color="#726DA8"/>
      <stop offset="1" stop-color="#594157"/>
    </linearGradient>
    <linearGradient id="b" x1=".222" x2="131.207" y1="54" y2="-131.824" gradientUnits="userSpaceOnUse">
      <stop stop-color="#726DA8"/>
      <stop offset="1" stop-color="#594157"/>
    </linearGradient>
    <linearGradient id="c" x1=".222" x2="131.207" y1="54" y2="-131.824" gradientUnits="userSpaceOnUse">
      <stop stop-color="#726DA8"/>
      <stop offset="1" stop-color="#594157"/>
    </linearGradient>
    <linearGradient id="d" x1=".222" x2="131.207" y1="54" y2="-131.824" gradientUnits="userSpaceOnUse">
      <stop stop-color="#726DA8"/>
      <stop offset="1" stop-color="#594157"/>
    </linearGradient>
    <linearGradient id="e" x1=".222" x2="131.207" y1="54" y2="-131.824" gradientUnits="userSpaceOnUse">
      <stop stop-color="#726DA8"/>
      <stop offset="1" stop-color="#594157"/>
    </linearGradient>
    <linearGradient id="f" x1=".222" x2="131.207" y1="54" y2="-131.824" gradientUnits="userSpaceOnUse">
      <stop stop-color="#726DA8"/>
      <stop offset="1" stop-color="#594157"/>
    </linearGradient>
    <linearGradient id="g" x1=".222" x2="131.207" y1="54" y2="-131.824" gradientUnits="userSpaceOnUse">
      <stop stop-color="#726DA8"/>
      <stop offset="1" stop-color="#594157"/>
    </linearGradient>
    <linearGradient id="h" x1=".222" x2="131.207" y1="54" y2="-131.824" gradientUnits="userSpaceOnUse">
      <stop stop-color="#726DA8"/>
      <stop offset="1" stop-color="#594157"/>
    </linearGradient>
    <linearGradient id="i" x1=".222" x2="131.207" y1="54" y2="-131.824" gradientUnits="userSpaceOnUse">
      <stop stop-color="#726DA8"/>
      <stop offset="1" stop-color="#594157"/>
    </linearGradient>
    <linearGradient id="j" x1=".222" x2="131.207" y1="54" y2="-131.824" gradientUnits="userSpaceOnUse">
      <stop stop-color="#726DA8"/>
      <stop offset="1" stop-color="#594157"/>
    </linearGradient>
    <linearGradient id="k" x1=".222" x2="131.207" y1="54" y2="-131.824" gradientUnits="userSpaceOnUse">
      <stop stop-color="#726DA8"/>
      <stop offset="1" stop-color="#594157"/>
    </linearGradient>
  </defs>
</svg>